<?xml version="1.0" standalone="no"?>
<!DOCTYPE svg PUBLIC "-//W3C//DTD SVG 20010904//EN"
 "http://www.w3.org/TR/2001/REC-SVG-20010904/DTD/svg10.dtd">
<svg version="1.0" xmlns="http://www.w3.org/2000/svg"
 width="1280.000000pt" height="720.000000pt" viewBox="0 0 1280.000000 720.000000"
 preserveAspectRatio="xMidYMid meet">
<metadata>
Created by potrace 1.15, written by Peter Selinger 2001-2017
</metadata>
<g transform="translate(0.000000,720.000000) scale(0.100000,-0.100000)"
fill="#000000" stroke="none">
<path d="M0 3679 l0 -3522 37 6 c21 4 60 11 86 17 27 5 157 9 290 8 l242 -1
85 31 c94 36 151 40 239 18 114 -28 126 -28 173 8 58 43 85 54 160 62 35 4 66
11 69 17 4 5 42 13 85 17 44 5 101 13 128 20 27 6 74 8 107 4 55 -6 59 -5 101
28 24 20 62 47 86 62 29 18 49 40 58 64 22 55 36 83 64 127 13 22 30 51 37 64
7 13 31 45 53 71 28 34 40 57 40 80 0 17 4 39 9 48 5 10 10 78 12 152 2 74 9
158 16 185 24 90 51 239 58 309 10 113 32 201 74 288 21 46 48 119 60 163 50
189 63 228 98 297 44 84 67 99 148 99 79 0 112 -20 140 -87 12 -27 15 -54 10
-89 -3 -27 0 -66 6 -85 6 -19 12 -45 14 -57 7 -46 49 -159 70 -188 20 -28 40
-128 44 -220 1 -16 6 -55 11 -85 6 -30 7 -75 4 -100 -4 -32 2 -76 20 -150 30
-120 33 -205 10 -276 -8 -27 -19 -81 -23 -119 -7 -67 -34 -142 -54 -156 -10
-7 59 -83 102 -111 l26 -18 -43 0 c-31 0 -53 8 -85 31 -36 26 -48 30 -83 25
-47 -6 -57 2 -112 88 -36 56 -39 83 -17 191 8 39 19 95 25 126 12 59 3 160
-21 249 -7 25 -13 90 -14 145 -1 94 -13 145 -35 145 -19 0 -40 -33 -56 -88 -9
-31 -42 -136 -72 -232 l-55 -175 13 -95 c22 -157 23 -216 5 -293 -19 -77 -28
-96 -68 -140 -14 -15 -33 -42 -42 -60 -13 -29 -53 -81 -118 -157 -24 -27 -77
-107 -77 -114 0 -3 -19 -30 -42 -61 -43 -57 -122 -113 -193 -137 -73 -24 -53
-36 72 -42 65 -4 208 -12 318 -18 153 -9 275 -9 520 1 191 7 681 12 1217 11
l897 0 16 29 c8 17 15 34 15 39 0 5 -26 8 -57 6 -32 -2 -283 -6 -558 -9 -275
-3 -539 -8 -587 -11 l-86 -7 -17 34 c-10 19 -27 43 -40 54 -30 27 -45 58 -45
93 0 34 -13 42 -73 43 -58 1 -19 17 43 18 59 2 127 22 154 47 23 23 112 84
120 84 13 0 436 285 471 318 11 9 54 45 95 79 41 33 98 84 125 113 69 72 191
171 200 162 3 -4 5 -1 3 7 -2 8 5 17 15 19 9 2 17 -1 17 -6 0 -14 -337 -340
-379 -367 -21 -12 -59 -41 -85 -64 -26 -22 -57 -46 -68 -52 -12 -7 -30 -19
-39 -28 -10 -9 -44 -32 -76 -51 -32 -19 -77 -49 -99 -67 -23 -18 -78 -51 -122
-73 -45 -22 -84 -45 -87 -50 -3 -6 4 -14 17 -19 13 -5 49 -19 80 -31 33 -13
60 -30 63 -40 7 -21 47 -28 135 -26 30 1 83 3 118 4 39 1 61 6 57 12 -4 6 19
11 62 12 94 2 137 -2 144 -14 8 -12 124 -14 249 -4 93 8 97 8 170 -23 l74 -32
18 23 c16 22 18 22 34 6 17 -16 17 -24 2 -125 -9 -59 -15 -109 -13 -111 2 -2
655 -4 1452 -5 l1448 -2 1 183 c2 152 5 186 18 201 9 10 16 35 17 57 0 21 4
48 8 59 7 18 9 18 35 -8 16 -16 27 -37 26 -50 -4 -43 0 -47 36 -47 53 0 64
-17 64 -99 0 -80 -12 -99 -75 -125 -19 -8 -35 -20 -35 -25 0 -6 22 -22 49 -35
35 -18 52 -34 60 -57 l11 -32 147 7 c82 4 263 8 403 8 227 0 264 -3 332 -21
77 -21 93 -21 1332 -21 1207 0 1256 1 1331 19 97 25 108 34 64 57 -19 9 -50
29 -69 44 -19 15 -55 36 -80 47 -65 29 -88 59 -104 136 -8 37 -22 83 -33 103
-18 36 -21 38 -133 66 -65 16 -128 26 -145 23 -16 -2 -76 -7 -133 -11 -97 -6
-104 -5 -146 20 -54 32 -68 54 -90 140 -20 82 -35 113 -71 146 -46 43 -53 67
-59 227 -5 106 -12 167 -25 205 -12 33 -21 99 -25 178 -4 69 -9 148 -12 175
-2 28 -6 75 -9 105 -2 31 -15 76 -30 104 -14 27 -25 66 -25 87 0 29 -7 46 -29
68 -16 17 -32 39 -35 49 -7 20 -33 32 -71 32 -33 0 -59 -78 -61 -185 -5 -222
-2 -498 7 -528 22 -78 -6 -259 -41 -264 -8 -1 -33 -5 -55 -8 -36 -7 -38 -8
-17 -16 19 -7 21 -12 12 -28 -5 -11 -8 -26 -5 -33 6 -16 -30 -78 -46 -78 -6 0
-9 17 -7 43 3 38 1 42 -22 45 -25 3 -60 -23 -89 -66 -8 -12 -28 -26 -43 -33
-24 -10 -32 -9 -48 6 -23 21 -26 45 -5 45 20 0 32 26 39 84 4 28 15 70 26 95
10 25 21 63 24 85 3 21 15 57 27 79 19 37 21 54 18 172 -3 97 -8 140 -21 170
-21 49 -23 178 -4 310 12 90 22 116 60 167 16 23 23 62 38 198 10 94 22 179
28 190 5 10 10 40 10 65 0 29 10 66 25 99 l25 54 80 12 c74 12 82 11 101 -6
27 -25 80 -139 114 -249 16 -49 38 -112 50 -140 12 -27 28 -66 35 -85 7 -19
17 -39 22 -45 4 -5 8 -17 8 -28 0 -10 16 -37 36 -60 38 -45 103 -214 104 -272
0 -16 5 -47 11 -68 8 -31 7 -48 -6 -85 -16 -46 -16 -48 6 -97 40 -89 49 -119
58 -202 6 -46 14 -91 20 -100 5 -10 12 -45 16 -78 6 -49 14 -66 40 -94 32 -33
38 -42 68 -111 18 -40 169 -190 237 -236 39 -26 60 -31 155 -41 61 -7 135 -21
165 -31 54 -19 58 -19 130 -2 96 23 210 40 260 40 41 0 161 -39 221 -72 21
-12 49 -42 68 -72 61 -101 58 -100 188 -92 123 8 176 -1 193 -34 18 -34 11
-99 -19 -165 -26 -58 -33 -65 -69 -74 -55 -15 -64 -29 -60 -98 4 -74 13 -79
176 -87 l122 -6 0 3575 0 3575 -946 0 c-897 0 -946 -1 -938 -17 4 -10 10 -43
12 -73 3 -47 -1 -64 -29 -115 -55 -104 -156 -300 -303 -590 -79 -154 -155
-300 -170 -324 -48 -75 -683 -1348 -1009 -2021 -34 -69 -75 -154 -92 -190 -18
-36 -38 -87 -45 -115 -7 -27 -32 -90 -56 -140 -23 -49 -46 -108 -50 -130 -4
-22 -20 -72 -35 -112 -33 -82 -37 -136 -11 -155 9 -7 41 -39 70 -70 l52 -57
-1 -90 c-1 -107 -10 -119 -109 -151 -51 -17 -78 -20 -128 -15 -53 6 -67 4 -98
-15 -19 -12 -43 -34 -52 -49 -62 -99 -121 -143 -161 -121 -12 6 -21 14 -21 19
0 5 -13 11 -29 14 -52 11 -67 38 -81 150 -7 56 -20 120 -27 142 -44 125 -87
286 -117 438 -48 237 -82 331 -184 500 -26 43 -63 106 -82 140 -56 98 -137
140 -385 195 -49 12 -144 33 -210 48 -260 58 -445 119 -445 146 0 13 24 9 48
-8 12 -8 50 -21 84 -28 35 -8 126 -30 203 -49 77 -19 158 -38 180 -42 73 -11
94 -16 231 -50 188 -48 314 -113 314 -162 0 -8 24 -51 53 -96 124 -189 193
-357 218 -527 16 -112 29 -173 52 -253 14 -45 28 -95 32 -112 3 -16 17 -52 31
-78 13 -27 24 -60 24 -74 0 -21 2 -24 15 -13 8 7 15 18 15 26 0 7 6 17 13 21
7 4 23 24 35 43 11 19 31 46 44 60 56 63 88 127 88 178 0 28 89 201 120 234
12 13 21 42 25 77 3 35 18 80 39 121 19 36 41 90 50 121 9 31 39 106 67 165
28 60 65 138 82 174 16 36 63 133 103 217 41 83 74 155 74 160 0 4 67 143 149
308 235 474 463 936 545 1108 42 87 96 193 120 235 73 130 506 978 506 992 0
7 -1327 10 -3870 10 -2198 0 -3870 -4 -3870 -9 0 -8 21 -60 55 -136 7 -16 22
-53 33 -80 11 -28 36 -82 55 -120 37 -74 49 -102 92 -205 15 -36 67 -148 116
-248 49 -101 89 -186 89 -187 0 -2 25 -57 56 -122 58 -120 109 -238 123 -283
5 -14 40 -90 79 -170 38 -80 89 -190 111 -245 23 -55 55 -129 71 -165 16 -36
52 -119 80 -185 28 -66 61 -142 75 -170 49 -103 96 -210 115 -265 7 -19 34
-80 61 -135 26 -55 96 -215 154 -355 59 -140 125 -291 146 -335 41 -84 93
-220 114 -294 6 -24 29 -64 51 -88 21 -25 51 -73 65 -107 46 -110 64 -146 70
-146 15 0 30 61 40 159 17 181 28 236 70 362 60 177 62 181 141 260 56 54 92
81 153 109 44 21 90 48 103 62 l22 25 -20 18 c-13 12 -20 31 -20 55 0 21 -7
54 -15 74 -20 48 -65 267 -65 316 0 21 -7 57 -15 80 -8 23 -15 57 -15 76 0 18
-5 45 -11 61 -7 15 -15 48 -19 73 -13 74 -28 150 -51 250 -12 52 -23 120 -26
150 -3 30 -9 59 -14 64 -5 6 -9 24 -9 40 0 17 -9 60 -20 96 -20 66 -48 202
-70 340 -7 41 -20 113 -30 160 -11 47 -24 110 -29 140 -5 30 -15 78 -21 105
-20 85 -23 145 -9 172 20 37 82 75 199 120 185 71 201 76 545 164 349 89 608
140 955 188 129 18 446 34 534 26 75 -6 87 -10 115 -37 17 -17 33 -40 35 -52
2 -11 11 -55 20 -96 9 -41 16 -90 16 -108 0 -18 6 -47 14 -65 7 -18 16 -55 20
-82 4 -28 19 -93 33 -145 14 -52 33 -138 44 -190 22 -110 44 -215 89 -425 43
-203 46 -217 64 -315 9 -47 24 -119 32 -160 9 -41 20 -93 24 -115 16 -90 43
-215 61 -292 11 -45 19 -104 17 -130 -3 -46 -5 -49 -51 -71 -39 -19 -75 -25
-200 -33 -157 -10 -177 -13 -312 -48 -44 -11 -129 -29 -190 -40 -60 -11 -204
-40 -320 -65 -115 -25 -257 -55 -315 -67 -58 -11 -132 -28 -165 -36 -33 -8
-96 -23 -140 -33 -126 -28 -305 -69 -349 -81 -26 -7 -35 -13 -26 -19 22 -14
-2 -65 -31 -65 -13 0 -23 5 -22 12 3 13 -46 0 -82 -23 -11 -7 -40 -17 -65 -24
-25 -6 -97 -36 -160 -67 -87 -43 -130 -70 -178 -117 -75 -72 -79 -78 -126
-221 -54 -163 -64 -207 -76 -350 -7 -84 -20 -158 -37 -210 -36 -116 -60 -204
-68 -253 -5 -29 -14 -48 -30 -58 -21 -14 -28 -13 -77 7 -83 36 -92 44 -136
132 -54 109 -71 167 -76 259 -3 52 -11 89 -25 115 -12 21 -33 65 -47 98 -15
33 -41 92 -59 130 -17 39 -44 111 -59 160 -15 50 -34 108 -42 130 -8 23 -14
48 -14 57 0 9 -4 18 -8 20 -4 2 -20 37 -36 78 -15 41 -35 90 -44 107 -60 116
-104 210 -137 293 -21 52 -58 138 -83 190 -24 52 -59 127 -77 165 -18 39 -58
122 -89 185 -31 63 -56 121 -56 129 0 8 -10 35 -21 60 -12 25 -32 69 -45 96
-12 28 -46 98 -73 157 -28 60 -51 110 -51 113 0 4 -70 153 -179 377 -33 69
-61 129 -61 132 0 4 -29 67 -65 141 -36 73 -65 136 -65 139 0 11 -58 133 -216
452 -90 182 -164 338 -164 347 0 10 9 34 20 54 11 21 20 43 20 50 0 10 -271
13 -1365 13 l-1365 0 0 -3521z m7034 809 c15 -49 16 -68 1 -68 -8 0 -15 9 -15
20 0 31 -17 24 -23 -10 -15 -75 -154 -165 -322 -209 -110 -28 -369 -54 -480
-48 -105 6 -199 36 -234 75 -22 24 -22 27 -7 30 10 2 46 -10 79 -26 81 -40
166 -55 307 -56 95 0 133 5 220 28 226 60 335 121 391 221 24 43 36 55 55 55
14 0 26 -6 28 -12z m841 -1387 c-4 -28 -2 -74 5 -107 10 -49 10 -59 -2 -68
-28 -20 -39 -203 -23 -351 15 -133 12 -243 -8 -262 -19 -20 -17 -34 -21 127
-2 52 -8 129 -15 170 -16 101 -10 222 15 285 16 38 20 66 16 114 -5 63 12 141
31 141 5 0 6 -21 2 -49z m153 -818 c11 -16 47 -81 81 -146 34 -65 86 -152 116
-192 30 -41 57 -84 60 -97 4 -13 26 -45 51 -72 24 -28 44 -60 44 -72 0 -29 76
-123 106 -130 13 -3 25 -11 25 -18 1 -6 2 -16 3 -22 0 -7 12 -23 26 -36 50
-48 140 -148 140 -155 0 -5 32 -42 71 -83 38 -41 76 -90 84 -107 7 -18 30 -47
50 -65 20 -18 59 -64 87 -101 60 -80 226 -222 355 -302 26 -16 56 -39 65 -50
26 -33 139 -89 173 -87 17 1 52 10 79 18 49 17 120 14 138 -4 12 -12 -7 -52
-26 -52 -7 0 -24 -11 -38 -23 -86 -80 -242 -130 -336 -108 -52 13 -56 12 -290
-43 -84 -20 -167 -36 -183 -36 -34 0 -70 16 -82 36 -6 10 -33 12 -119 8 -92
-5 -114 -3 -123 9 -6 8 -19 16 -29 18 -25 5 -33 29 -9 29 10 0 36 7 58 15 45
16 118 19 143 6 9 -4 29 -11 43 -15 23 -5 28 -2 34 21 12 49 73 111 131 133
30 11 62 20 71 20 23 0 213 93 213 105 0 16 -12 28 -75 74 -33 25 -84 68 -113
95 -30 28 -60 55 -68 59 -8 4 -38 40 -68 80 -30 40 -66 86 -81 102 -48 53
-139 166 -180 224 -46 63 -206 230 -246 255 -17 10 -33 38 -48 81 -33 94 -45
94 -38 0 5 -71 4 -81 -17 -109 -27 -36 -49 -81 -71 -150 -9 -27 -29 -76 -45
-110 -16 -33 -30 -72 -33 -86 -3 -14 -14 -52 -26 -85 -40 -117 -50 -161 -56
-265 -8 -133 -17 -161 -65 -204 -53 -47 -84 -55 -114 -27 -20 19 -25 36 -31
114 -3 51 -11 115 -16 142 -5 28 -14 93 -20 145 -11 108 -13 909 -3 1105 l8
130 13 -45 c11 -35 13 -88 8 -245 -4 -110 -7 -218 -8 -240 -3 -115 15 -541 23
-549 7 -7 10 -4 10 6 0 14 23 69 82 198 11 25 34 79 50 120 48 125 72 174 98
203 29 34 86 60 111 52 9 -3 20 -1 24 5 3 6 10 8 14 5 22 -13 -26 87 -69 145
-50 68 -103 166 -114 212 -3 15 -20 43 -37 62 -27 32 -49 81 -49 113 0 21 18
15 38 -14z m-2711 -388 c2 -119 -1 -140 -30 -244 -29 -104 -49 -139 -66 -114
-10 16 -85 63 -99 63 -7 0 -21 7 -29 16 -15 14 -15 19 2 47 12 20 19 52 20 87
0 45 6 63 33 102 17 26 32 49 32 53 0 3 18 33 41 66 35 51 44 60 67 57 l27 -3
2 -130z m-2135 -1237 c9 -7 18 -32 21 -56 6 -48 65 -180 96 -213 16 -18 26
-20 56 -15 36 7 36 7 24 -16 -8 -13 -13 -27 -14 -32 0 -15 -39 -24 -62 -13
-43 19 -115 150 -134 245 -14 64 -20 71 -92 86 -15 4 -25 11 -22 16 9 14 108
12 127 -2z"/>
<path d="M6815 6859 c-77 -4 -176 -12 -220 -19 -44 -6 -118 -15 -165 -20 -266
-26 -946 -184 -1280 -297 -145 -49 -283 -116 -298 -145 -11 -20 0 -84 73 -443
48 -231 90 -442 95 -470 5 -27 45 -230 90 -450 44 -220 99 -490 121 -600 37
-187 56 -245 79 -245 5 0 47 14 92 30 79 29 350 99 523 136 44 9 96 20 115 24
19 4 80 17 135 29 55 12 255 53 445 91 190 39 395 81 455 94 104 22 181 33
392 55 123 13 136 22 130 86 -3 28 -19 115 -36 195 -18 80 -56 262 -86 405
-29 143 -72 348 -95 455 -23 107 -63 301 -90 430 -138 665 -128 627 -170 646
-37 17 -147 22 -305 13z m63 -642 c32 -34 38 -117 17 -232 l-18 -95 65 -60
c114 -104 159 -202 161 -349 2 -110 -31 -162 -115 -180 -62 -14 -112 -2 -168
41 -63 47 -72 45 -135 -36 -23 -28 -56 -59 -75 -68 -44 -22 -176 -24 -224 -4
-74 31 -128 152 -129 291 0 98 22 151 100 235 29 32 53 60 53 64 0 3 -34 51
-75 106 -82 111 -103 159 -86 202 18 48 52 61 141 55 65 -4 93 -12 155 -43
l75 -38 48 46 c91 89 166 112 210 65z m-957 -153 c27 -24 25 -108 -6 -235 -24
-102 -23 -129 9 -129 26 -1 119 -58 163 -100 25 -25 57 -69 71 -98 22 -48 24
-64 20 -160 -3 -90 -7 -113 -26 -144 -33 -53 -112 -90 -205 -96 -69 -4 -74 -3
-125 31 -29 20 -58 34 -65 31 -7 -2 -25 -24 -40 -49 -45 -71 -90 -105 -140
-105 -135 1 -219 119 -220 310 0 85 4 102 30 161 17 37 36 69 42 73 20 13 11
46 -28 104 -77 115 -105 191 -90 245 18 66 87 73 212 22 l68 -28 83 82 c46 44
99 88 117 96 41 18 103 13 130 -11z m1435 -911 c48 -72 39 -166 -23 -225 -53
-50 -176 -138 -253 -181 -138 -76 -444 -178 -650 -216 -36 -7 -85 -17 -110
-22 -169 -35 -296 -49 -438 -49 -146 0 -317 18 -392 41 -61 19 -132 71 -161
118 -24 37 -29 56 -29 110 0 110 33 124 153 66 83 -40 156 -60 272 -76 255
-33 936 102 1215 242 71 35 180 113 250 178 51 47 58 50 100 48 38 -2 48 -7
66 -34z"/>
<path d="M6780 6179 c-19 -12 -58 -43 -87 -70 -28 -27 -61 -49 -73 -49 -11 0
-54 18 -95 41 -89 48 -169 62 -210 35 -41 -27 -32 -55 60 -179 50 -68 85 -124
85 -138 0 -16 -21 -46 -58 -84 -101 -106 -125 -191 -89 -313 35 -116 87 -162
181 -162 71 0 104 17 152 77 56 71 72 83 113 83 28 0 51 -10 91 -40 79 -59
142 -54 189 16 20 29 23 42 18 87 -16 147 -47 208 -162 318 -73 70 -77 85 -49
180 24 80 24 172 0 198 -23 26 -23 26 -66 0z"/>
<path d="M5799 6021 c-24 -15 -72 -58 -107 -94 -35 -36 -72 -69 -82 -72 -10
-3 -37 2 -61 10 -24 9 -70 26 -102 37 l-58 21 -21 -21 c-19 -19 -20 -25 -10
-59 6 -22 41 -81 77 -133 38 -56 65 -105 65 -121 0 -14 -11 -41 -26 -60 -70
-95 -91 -212 -55 -313 26 -75 62 -121 113 -147 54 -27 74 -18 134 63 55 75 59
78 105 78 26 0 48 -9 80 -35 52 -41 84 -44 162 -15 94 35 127 85 127 195 0 92
-24 147 -97 216 -48 47 -118 89 -147 89 -9 0 -23 11 -32 25 -18 27 -15 59 17
187 26 103 25 143 -3 162 -29 20 -27 21 -79 -13z"/>
<path d="M7214 5090 c-83 -74 -187 -143 -269 -181 -268 -121 -803 -233 -1115
-233 -180 0 -328 30 -433 87 -33 18 -39 19 -47 7 -16 -25 -11 -66 12 -96 104
-135 216 -170 543 -168 153 0 189 4 365 38 453 86 715 183 928 341 111 83 142
119 142 162 -1 32 -30 95 -46 100 -7 2 -43 -23 -80 -57z"/>
<path d="M1405 35 c-38 -14 -74 -27 -80 -29 -5 -3 799 -5 1788 -5 990 -1 1797
3 1797 8 0 4 -69 11 -152 15 -230 10 -1556 8 -1938 -3 -237 -8 -399 -7 -555 1
-121 6 -319 12 -440 14 -121 1 -240 7 -265 13 -63 15 -76 14 -155 -14z"/>
<path d="M4960 11 c0 -8 412 -11 1472 -11 809 0 1469 2 1467 4 -2 2 -664 7
-1471 11 -1062 5 -1468 4 -1468 -4z"/>
<path d="M9678 3 c332 -2 872 -2 1200 0 328 1 57 2 -603 2 -660 0 -929 -1
-597 -2z"/>
</g>
</svg>
